<svg xmlns="http://www.w3.org/2000/svg" width="113.322" height="132.806" viewBox="0 0 113.322 132.806">
  <g id="estdamah" transform="translate(-1277.458 -3598.55)">
    <path id="Path_1233" data-name="Path 1233" d="M1356.286,3695.847l-19,11.824,10.094,5.854,19-11.838-10.094-5.839Z" fill="#2e9fda"/>
    <path id="Path_1234" data-name="Path 1234" d="M1341.108,3598.55l-3.547,5.361,10.151,5.821,3.549-5.365-10.153-5.817Z" fill="#00349a"/>
    <path id="Path_1235" data-name="Path 1235" d="M1337.561,3603.911l37.016,31.769,10.121,5.811-36.986-31.759-10.151-5.821Z" fill="#2e9fda"/>
    <path id="Path_1236" data-name="Path 1236" d="M1374.577,3635.68l-40.51,70.165,10.1,5.855,40.536-70.21-10.122-5.81Z" fill="#00349a"/>
    <path id="Path_1237" data-name="Path 1237" d="M1334.765,3683.471l-4.548,2.445,10.108,5.851,4.548-2.448-10.108-5.847Z" fill="#2e9fda"/>
    <path id="Path_1238" data-name="Path 1238" d="M1330.217,3685.916l-.985,32,10.091,5.861,1-32.005-10.108-5.851Z" fill="#00349a"/>
    <path id="Path_1239" data-name="Path 1239" d="M1340.326,3691.767l-1,32.005,27.209-16.952-.152-5.134-19,11.838,43.4-75.177-39.519-33.981-3.549,5.365,36.987,31.759-40.536,70.21.711-22.382-4.548,2.448Z" fill="#0070c7"/>
    <path id="Path_1240" data-name="Path 1240" d="M1324.345,3617.976l-.69,22.551,10.135,5.84.7-22.559-10.147-5.832Z" fill="#2e9fda"/>
    <path id="Path_1241" data-name="Path 1241" d="M1321.1,3616.1l-43.646,75.6,10.122,5.882,43.674-75.645L1321.1,3616.1Z" fill="#00349a"/>
    <path id="Path_1242" data-name="Path 1242" d="M1329.207,3605.819l-27.465,16.9,10.152,5.846,27.466-16.925-10.152-5.826Z" fill="#2e9fda"/>
    <path id="Path_1243" data-name="Path 1243" d="M1301.742,3622.724l.172,5.2,10.149,5.848-.169-5.2-10.152-5.846Z" fill="#00349a"/>
    <path id="Path_1244" data-name="Path 1244" d="M1277.458,3691.7c15.909,13.749,30.976,29.064,49.182,39.657l-39.06-33.775-10.122-5.882Z" fill="#2e9fda"/>
    <path id="Path_1245" data-name="Path 1245" d="M1287.58,3697.581l39.06,33.775,3.559-5.324-36.486-31.592,40.779-70.632-.7,22.559,4.564-2.442,1.006-32.28-27.466,16.925.169,5.2,19.191-11.836-43.674,75.645Z" fill="#0070c7"/>
  </g>
</svg>
